<?xml version="1.0" encoding="UTF-8" standalone="no"?>
<!-- Created with Inkscape (http://www.inkscape.org/) -->

<svg
   width="257"
   height="257"
   viewBox="0 0 67.997915 67.997916"
   version="1.1"
   id="svg5"
   xml:space="preserve"
   inkscape:export-filename="favicon-128x128.png"
   inkscape:export-xdpi="8.3683109"
   inkscape:export-ydpi="8.3683109"
   inkscape:version="1.2 (56b05e47e7, 2022-06-09, custom)"
   sodipodi:docname="safari-pinned-tab.svg"
   xmlns:inkscape="http://www.inkscape.org/namespaces/inkscape"
   xmlns:sodipodi="http://sodipodi.sourceforge.net/DTD/sodipodi-0.dtd"
   xmlns="http://www.w3.org/2000/svg"
   xmlns:svg="http://www.w3.org/2000/svg"><sodipodi:namedview
     id="namedview7"
     pagecolor="#505050"
     bordercolor="#eeeeee"
     borderopacity="1"
     inkscape:showpageshadow="0"
     inkscape:pageopacity="0"
     inkscape:pagecheckerboard="0"
     inkscape:deskcolor="#505050"
     inkscape:document-units="px"
     showgrid="false"
     inkscape:zoom="0.42012934"
     inkscape:cx="104.72965"
     inkscape:cy="448.67135"
     inkscape:window-width="1366"
     inkscape:window-height="704"
     inkscape:window-x="0"
     inkscape:window-y="0"
     inkscape:window-maximized="1"
     inkscape:current-layer="layer1" /><defs
     id="defs2" /><g
     inkscape:label="Capa 1"
     inkscape:groupmode="layer"
     id="layer1"><path
       style="fill:#d31c22;fill-opacity:1;stroke-width:0.511741"
       d="M 0.2620466,60.265268 C 0.4815596,59.895625 13.630873,39.36192 16.174415,35.416829 16.708709,34.588122 16.95955,34.071793 16.913461,33.89558 16.875091,33.748858 13.980316,29.164872 10.480608,23.708935 6.9809076,18.253005 3.2005106,12.357235 2.0797376,10.607213 l -2.03778,-3.1818509 9.9109073,-0.0822 c 5.4509991,-0.04521 9.9874921,-0.04251 10.0810971,0.0057 0.09361,0.04847 1.670484,2.431218 3.50417,5.2950199 1.833679,2.863797 5.619447,8.767025 8.412787,13.118276 2.793353,4.351262 5.105323,8.012711 5.137716,8.136577 0.03518,0.134711 -3.157949,5.252112 -7.947588,12.73681 -4.403567,6.881388 -8.232491,12.846735 -8.508733,13.256298 l -0.502255,0.744688 -10.064927,0.03478 -10.0649294,0.03478 z m 30.7227664,0.269925 c 0.05618,-0.09307 3.847752,-6.018448 8.425774,-13.167451 4.578023,-7.149003 8.348515,-13.123195 8.378912,-13.275968 0.03816,-0.191946 -2.27576,-3.915222 -7.489066,-12.050412 -4.149361,-6.474959 -7.931754,-12.3772389 -8.405321,-13.1161899 -0.473554,-0.73895 -0.861014,-1.385793 -0.861014,-1.437435 0,-0.100302 19.590258,-0.26375 19.861298,-0.165712 0.08849,0.03205 2.858447,4.2724629 6.155461,9.4232249 3.297014,5.150762 7.108831,11.098008 8.47072,13.216102 1.36187,2.118103 2.476136,3.936882 2.476136,4.041763 0,0.104888 -2.214372,3.642247 -4.920807,7.860834 -2.706451,4.218586 -6.372337,9.955001 -8.146424,12.747577 -1.774089,2.792582 -3.352551,5.220304 -3.5077,5.394928 -0.64141,0.721935 -0.271482,0.697975 -10.776703,0.697975 -7.77487,0 -9.74256,-0.03448 -9.661266,-0.169263 z"
       id="path141-6" /></g></svg>
